<?xml version="1.0" encoding="utf-8"?>
<!-- Generator: Adobe Illustrator 25.2.1, SVG Export Plug-In . SVG Version: 6.00 Build 0)  -->
<svg version="1.1" xmlns="http://www.w3.org/2000/svg" xmlns:xlink="http://www.w3.org/1999/xlink" x="0px" y="0px"
	 viewBox="0 0 3100 1525" style="enable-background:new 0 0 3100 1525;" xml:space="preserve">
<style type="text/css">
	.st0{display:none;}
	.st1{display:inline;fill:#323232;stroke:#000000;stroke-miterlimit:10;}
	.st2{opacity:0.25;}
	.st3{fill:#FFD700;stroke:#FFFFFF;stroke-width:8;stroke-miterlimit:10;}
</style>
<g id="Layer_2" class="st0">
	<rect x="-188.3" y="-331.2" class="st1" width="3480.8" height="2012.9"/>
</g>
<g id="Layer_1">
	<path class="st2" d="M1593.2,188.6c-99.9,115-105.6,123.5-93.3,142.3c13.2,18.9,11.3,22.6-24.5,50l-38.6,30.2l-75.4-66.9
		c-41.5-35.8-82.9-71.6-91.4-79.2c-14.1-12.3-18.8-7.5-45.2,39.6c-17,29.2-32,52.8-34.9,52.8s-2.8-23.6,0-51.8s4.7-51.8,3.8-51.8
		s-65,20.7-143.3,45.2l-141.4,45.2l-2.8,46.2c-1.9,26.4,0,61.3,2.8,79.2c4.7,27.3,9.4,30.2,29.2,26.4s22.6-0.9,22.6,25.5v29.2h-72.6
		c-57.5,0-82,4.7-112.2,20.7L736.5,592l-3.8-64.1c-3.8-75.4-31.1-125.4-94.2-170.6c-129.1-94.2-388.3-67.8-585.3,58.5
		c-32,20.7-43.3,33-39.6,44.3c2.8,8.5,33.9,62.2,67.9,120.6l63.2,105.6l26.4-14.1l26.4-14.1l24.5,54.7
		c58.4,132.9,205.5,460,208.3,463.7c0.9,1.9,50.9-11.3,109.3-30.2l106.5-34.9l-35.8-138.5C591.3,895.5,576.2,828.6,579,822
		c1.9-5.7,11.3-15.1,20.7-19.8c15.1-8.5,17-4.7,19.8,22.6c11.3,154.6,172.5,233.8,321.4,157.4c31.1-16,58.4-26.4,61.3-23.6
		s5.7,18.8,5.7,36.8c0,35.8,4.7,36.8,103.7,21.7c114-17.9,103.7-7.5,103.7-103.7c0-47.1,1.9-84.8,4.7-84.8s97.1,44.3,209.2,99
		s205.5,99,207.3,99c1,0,2.8-43.3,2.8-97.1v-97.1l73.5-22.6c39.6-12.2,77.3-24.5,82.9-26.4c7.5-1.9,8.5,8.5,2.8,37.7
		c-3.8,22.6-7.5,45.2-8.5,50c0,7.5,181.9,42.4,224.3,42.4c6.6,0,11.3-12.2,11.3-27.3c0-37.7,13.2-43.4,27.3-12.3
		c6.6,14.1,17.9,35.8,26.4,48.1l15.1,22.6l16-31.1l16-31.1l6.6,51.8l6.6,52.8l83.9,15c46.2,8.5,104.6,17.9,129.1,21.7l46.2,4.7
		l-3.8-38.7c-3.8-36.8-2.8-38.6,22.6-38.6c15.1-0.9,43.4-6.6,64.1-14.1l35.8-12.2l-4.7,44.3l-4.7,45.2l79.2,10.4
		c44.3,5.7,83.9,13.2,88.6,16c5.7,2.8,9.4,19.8,9.4,37.7v32.1l87.6,27.3l86.7,26.4l115.9-344c63.1-189.5,113.1-349.7,111.2-354.4
		c-2.8-9.4-190.4-56.5-221.5-56.5c-7.5,0-18.9,15.1-24.5,33l-12.3,33l-10.4-42.4l-11.3-43.4L2678.1,362
		c-70.7-14.1-133.8-28.3-139.5-30.2c-13.2-4.7-24.5,72.6-17,120.6c3.8,23.6,12.2,37.7,23.6,41.5c10.4,3.8,17.9,10.4,17.9,15.1
		c0,5.7-8.5,6.6-20.7,1.9c-41.5-15.1-133.8-7.5-176.2,13.2c-46.2,23.6-41.5,31.1-62.2-100.9c-8.5-54.7-17-110.3-19.8-125.4
		l-5.6-25.5H2186c-83.9,0-92.4,1.9-97.1,18.9c-4.7,17-13.2,18.8-102.7,18.8h-99l-12.2,53.7c-6.6,30.2-12.2,58.4-13.2,63.1
		s-17-4.7-35.8-20.7c-17.9-17-59.4-41.5-91.4-55.6l-58.4-26.4l70.7-40.5c46.2-26.4,69.8-45.2,65-51.8
		c-11.3-19.8-99.9-152.7-105.6-159.3C1702.5,68.9,1651.6,120.8,1593.2,188.6z M1743.1,223.5c0,16-158.3,92.4-169.7,81.1
		c-4.7-4.7,18.8-39.6,54.7-82.9l62.2-73.5l26.4,31.1C1730.8,197.1,1743.1,216.9,1743.1,223.5z M2236,335.7
		c2.8,4.7,12.3,61.3,21.7,126.3l16,117.8l-29.2,60.3c-52.8,104.6-36.8,193.2,49.9,271.4c24.5,22.6,42.4,42.4,39.6,45.2
		c-8.5,9.4-120.6-8.5-132.9-20.7c-6.6-6.6-17.9-53.7-24.5-104.6s-15.1-102.7-18.9-115.9l-6.6-23.6l-7.5,23.6
		c-3.8,13.2-16,42.4-25.4,66l-18.9,42.4l-39.6-84.8l-39.6-84.8l-16,99c-9.4,53.7-17.9,99-18.8,100.8c-1.9,0.9-31.1-2.8-66-8.5
		l-64.1-10.4l6.6-43.4c8.5-59.4,17-77.3,45.2-103.7l24.5-23.6l-19.8-21.7l-20.7-20.7l21.7-132.9l21.7-132.9l66.9,2.8l66.9,2.8
		l14.1,77.3c7.5,42.4,17,79.2,19.8,82.9c3.8,2.8,8.5-13.2,12.3-34.9c3.8-22.6,10.4-66.9,16-99.9l10.4-58.4h45.2
		C2211.5,329.1,2234.1,331.9,2236,335.7z M1134.2,353.6c2.8,8.5,5.7,47.1,5.7,85.8c0,84.8,1.9,83.9,75.4-24.5
		c28.3-41.5,54.7-75.4,57.5-73.5c3.8,1,33,26.4,65,56.6l59.4,55.6l-65,66.9c-35.8,37.7-75.4,79.2-86.7,92.4l-21.7,24.5l77.3,31.1
		c59.4,24.5,87.7,42.4,125.4,81.1s59.4,52.8,102.7,65l53.7,15.1v112.2L1375.5,838l-207.3-103.7v108.4c0,120.6,7.5,108.4-77.3,122.5
		l-35.8,5.6V920c0-28.3,6.6-66.9,14.1-84.8c27.3-66.9,14.1-164-29.2-214.9c-6.6-7.5-15.1-46.2-17.9-84.8
		c-8.5-104.6-11.3-112.2-37.7-112.2c-17,0-23.6-4.7-23.6-17.9c0-15.1,15.1-23.6,73.5-41.5C1122.9,335.7,1126.7,334.7,1134.2,353.6z
		 M564.9,380c107.5,55.6,142.3,151.8,92.4,256.4c-20.7,45.2-84.8,117.8-129.1,148l-22.6,15.1l33.9,131
		c19.8,71.6,34.9,132.9,34.9,136.7c0,2.8-24.5,13.2-55.6,23.6l-55.6,18.9L347.2,848.4c-63.1-143.3-116.9-262-118.8-263.9
		c-1-1.9-15.1,1.9-31.1,8.5c-33.9,14.1-34.9,13.2-84.8-77.3l-30.2-55.6l80.1-36.8c44.3-20.7,104.6-44.3,134.8-51.8
		C373.6,352.6,520.6,357.3,564.9,380z M1740.2,413c66.9,33.9,68.8,42.4,16,98c-25.4,27.3-65,69.8-88.6,95.2l-42.4,45.2l37.7-6.6
		c20.7-3.8,51.8-17,68.8-30.2l31.1-23.6l41.5,36.8c22.6,19.8,41.5,38.7,41.5,42.4c1.9,14.1-89.6,67.9-142.3,84.8
		c-92.4,28.3-158.3,19.8-222.4-27.3c-76.3-57.5-87.7-169.7-23.6-255.4C1515,395,1650.7,366.8,1740.2,413z M2684.7,418.6
		c38.6,8.5,71.6,16,73.5,17c0.9,1.9,15.1,66,32,143.3c16,78.2,30.2,142.3,32.1,144.2c0.9,1.9,16-54.7,33-125.4
		c24.5-106.5,33-127.2,47.1-127.2c17,0,115,19.8,121.6,24.5c3.8,3.8-187.6,581.5-197,591c-10.4,12.3-94.2-14.1-95.2-31.1
		c-0.9-7.5-3.8-88.6-7.5-179.1l-5.6-164.9L2696,844.6c-25.4,148.9-19.8,141.4-99,128.2l-35.8-5.7l5.7-37.7c3.8-20.7,17-50,30.2-66
		c45.2-54.7,64.1-101.8,64.1-166.8c0-61.3-16-106.5-45.2-131c-10.4-8.5-12.2-23.6-8.5-61.3c4.7-45.2,2.8-50.9-15.1-55.6
		c-14.1-2.8-19.8-12.2-19.8-29.2c0-20.7,3.8-24.5,21.7-19.8C2605.5,402.6,2646,411.1,2684.7,418.6L2684.7,418.6z M1843,551.5
		c-5.7,19.8-9.4,22.6-19.8,13.2c-11.3-9.4-11.3-14.1,1.9-34.9C1843,502.5,1851.5,514.7,1843,551.5z M2548.9,572.2
		c16,9.4,37.7,35.8,50.9,61.3c20.7,42.4,21.7,50,11.3,95.2C2582.9,855,2433.9,936,2335,878.6c-35.8-19.8-73.5-86.7-73.5-130.1
		c0-41.5,43.4-123.5,81.1-151.8C2407.6,546.8,2486.7,537.4,2548.9,572.2L2548.9,572.2z M1356.6,607.1c0,25.5-6.6,28.3-28.3,14.1
		c-12.3-8.5-11.3-11.3,3.8-23.6C1356.6,579.8,1356.6,579.8,1356.6,607.1L1356.6,607.1z M960.8,612.8c95.2,53.7,99.9,190.4,9.4,279.9
		c-114,115-285.6,72.6-299.7-73.5c-3.8-37.7,0.9-56.6,20.7-97.1c13.2-27.3,33.9-59.4,46.2-70.7C799.6,593,895.7,577,960.8,612.8
		L960.8,612.8z"/>
	<path class="st3" d="M1593.2,128.6c-99.9,115-105.6,123.5-93.3,142.3c13.2,18.9,11.3,22.6-24.5,50l-38.6,30.2l-75.4-66.9
		c-41.5-35.8-82.9-71.6-91.4-79.2c-14.1-12.2-18.8-7.5-45.2,39.6c-17,29.2-32,52.8-34.9,52.8s-2.8-23.6,0-51.8s4.7-51.8,3.8-51.8
		s-65,20.7-143.3,45.2l-141.4,45.2l-2.8,46.2c-1.9,26.4,0,61.3,2.8,79.2c4.7,27.3,9.4,30.2,29.2,26.4s22.6-0.9,22.6,25.5v29.2h-72.6
		c-57.5,0-82,4.7-112.2,20.7L736.5,532l-3.8-64.1c-3.8-75.4-31.1-125.4-94.2-170.6c-129.1-94.2-388.3-67.8-585.3,58.5
		c-32,20.7-43.3,33-39.6,44.3c2.8,8.5,33.9,62.2,67.9,120.6l63.2,105.6l26.4-14.1l26.4-14.1l24.5,54.7
		c58.4,132.9,205.5,460,208.3,463.7c0.9,1.9,50.9-11.3,109.3-30.2l106.5-34.9l-35.8-138.5C591.3,835.5,576.2,768.6,579,762
		c1.9-5.7,11.3-15.1,20.7-19.8c15.1-8.5,17-4.7,19.8,22.6C630.9,919.4,792.1,998.6,941,922.2c31.1-16,58.4-26.4,61.3-23.6
		s5.7,18.8,5.7,36.8c0,35.8,4.7,36.8,103.7,21.7c114-17.9,103.7-7.5,103.7-103.7c0-47.1,1.9-84.8,4.7-84.8s97.1,44.3,209.2,99
		s205.5,99,207.3,99c1,0,2.8-43.3,2.8-97.1v-97.1l73.5-22.6c39.6-12.2,77.3-24.5,82.9-26.4c7.5-1.9,8.5,8.5,2.8,37.7
		c-3.8,22.6-7.5,45.2-8.5,50c0,7.5,181.9,42.4,224.3,42.4c6.6,0,11.3-12.2,11.3-27.3c0-37.7,13.2-43.4,27.3-12.3
		c6.6,14.1,17.9,35.8,26.4,48.1l15.1,22.6l16-31.1l16-31.1l6.6,51.8l6.6,52.8l83.9,15c46.2,8.5,104.6,17.9,129.1,21.7l46.2,4.7
		l-3.8-38.7c-3.8-36.8-2.8-38.6,22.6-38.6c15.1-0.9,43.4-6.6,64.1-14.1l35.8-12.2l-4.7,44.3l-4.7,45.2l79.2,10.4
		c44.3,5.7,83.9,13.2,88.6,16c5.7,2.8,9.4,19.8,9.4,37.7v32.1l87.6,27.3l86.7,26.4l115.9-344c63.1-189.5,113.1-349.7,111.2-354.4
		c-2.8-9.4-190.4-56.5-221.5-56.5c-7.5,0-18.9,15.1-24.5,33l-12.3,33l-10.4-42.4l-11.3-43.4L2678.1,302
		c-70.7-14.1-133.8-28.3-139.5-30.2c-13.2-4.7-24.5,72.6-17,120.6c3.8,23.6,12.2,37.7,23.6,41.5c10.4,3.8,17.9,10.4,17.9,15.1
		c0,5.7-8.5,6.6-20.7,1.9c-41.5-15.1-133.8-7.5-176.2,13.2c-46.2,23.6-41.5,31.1-62.2-100.9c-8.5-54.7-17-110.3-19.8-125.4
		l-5.6-25.4H2186c-83.9,0-92.4,1.9-97.1,18.9s-13.2,18.9-102.7,18.9h-99l-12.2,53.7c-6.6,30.2-12.2,58.4-13.2,63.1
		s-17-4.7-35.8-20.7c-17.9-17-59.4-41.5-91.4-55.6l-58.4-26.4l70.7-40.5c46.2-26.4,69.8-45.2,65-51.8
		c-11.3-19.8-99.9-152.7-105.6-159.3C1702.5,8.9,1651.6,60.8,1593.2,128.6z M1743.1,163.5c0,16-158.3,92.4-169.7,81.1
		c-4.7-4.7,18.8-39.6,54.7-82.9l62.2-73.5l26.4,31.1C1730.8,137.1,1743.1,156.9,1743.1,163.5z M2236,275.7
		c2.8,4.7,12.3,61.3,21.7,126.3l16,117.8l-29.2,60.3c-52.8,104.6-36.8,193.2,49.9,271.4c24.5,22.6,42.4,42.4,39.6,45.2
		c-8.5,9.4-120.6-8.5-132.9-20.7c-6.6-6.6-17.9-53.7-24.5-104.6s-15.1-102.7-18.9-115.9l-6.6-23.6l-7.5,23.6
		c-3.8,13.2-16,42.4-25.4,66l-18.9,42.4l-39.6-84.8l-39.6-84.8l-16,99c-9.4,53.7-17.9,99-18.8,100.8c-1.9,0.9-31.1-2.8-66-8.5
		l-64.1-10.4l6.6-43.4c8.5-59.4,17-77.3,45.2-103.7l24.5-23.6l-19.8-21.7l-20.7-20.7l21.7-132.9l21.7-132.9l66.9,2.8l66.9,2.8
		l14.1,77.3c7.5,42.4,17,79.2,19.8,82.9c3.8,2.8,8.5-13.2,12.3-34.9c3.8-22.6,10.4-66.9,16-99.9l10.4-58.4h45.2
		C2211.5,269.1,2234.1,271.9,2236,275.7z M1134.2,293.6c2.8,8.5,5.7,47.1,5.7,85.8c0,84.8,1.9,83.9,75.4-24.5
		c28.3-41.5,54.7-75.4,57.5-73.5c3.8,1,33,26.4,65,56.6l59.4,55.6l-65,66.9c-35.8,37.7-75.4,79.2-86.7,92.4l-21.7,24.5l77.3,31.1
		c59.4,24.5,87.7,42.4,125.4,81.1s59.4,52.8,102.7,65l53.7,15.1v112.2L1375.5,778l-207.3-103.7v108.4c0,120.6,7.5,108.4-77.3,122.5
		l-35.8,5.6V860c0-28.3,6.6-66.9,14.1-84.8c27.3-66.9,14.1-164-29.2-214.9c-6.6-7.5-15.1-46.2-17.9-84.8
		c-8.5-104.6-11.3-112.2-37.7-112.2c-17,0-23.6-4.7-23.6-17.9c0-15.1,15.1-23.6,73.5-41.5C1122.9,275.7,1126.7,274.7,1134.2,293.6z
		 M564.9,320c107.5,55.6,142.3,151.8,92.4,256.4c-20.7,45.2-84.8,117.8-129.1,148l-22.6,15.1l33.9,131
		c19.8,71.6,34.9,132.9,34.9,136.7c0,2.8-24.5,13.2-55.6,23.6l-55.6,18.9L347.2,788.4c-63.1-143.3-116.9-262-118.8-263.9
		c-1-1.9-15.1,1.9-31.1,8.5c-33.9,14.1-34.9,13.2-84.8-77.3l-30.2-55.6l80.1-36.8c44.3-20.7,104.6-44.3,134.8-51.8
		C373.6,292.6,520.6,297.3,564.9,320z M1740.2,353c66.9,33.9,68.8,42.4,16,98c-25.4,27.3-65,69.8-88.6,95.2l-42.4,45.2l37.7-6.6
		c20.7-3.8,51.8-17,68.8-30.2l31.1-23.6l41.5,36.8c22.6,19.8,41.5,38.7,41.5,42.4c1.9,14.1-89.6,67.9-142.3,84.8
		c-92.4,28.3-158.3,19.8-222.4-27.3c-76.3-57.5-87.7-169.6-23.6-255.4C1515,335,1650.7,306.8,1740.2,353z M2684.7,358.6
		c38.6,8.5,71.6,16,73.5,17c0.9,1.9,15.1,66,32,143.3c16,78.2,30.2,142.3,32.1,144.2c0.9,1.9,16-54.7,33-125.4
		c24.5-106.5,33-127.2,47.1-127.2c17,0,115,19.8,121.6,24.5c3.8,3.8-187.6,581.5-197,591c-10.4,12.3-94.2-14.1-95.2-31.1
		c-0.9-7.5-3.8-88.6-7.5-179.1l-5.6-164.9L2696,784.6c-25.4,148.9-19.8,141.4-99,128.2l-35.8-5.7l5.7-37.7c3.8-20.7,17-50,30.2-66
		c45.2-54.7,64.1-101.8,64.1-166.8c0-61.3-16-106.5-45.2-131c-10.4-8.5-12.2-23.6-8.5-61.3c4.7-45.2,2.8-50.9-15.1-55.6
		c-14.1-2.8-19.8-12.2-19.8-29.2c0-20.7,3.8-24.5,21.7-19.8C2605.5,342.6,2646,351.1,2684.7,358.6L2684.7,358.6z M1843,491.5
		c-5.7,19.8-9.4,22.6-19.8,13.2c-11.3-9.4-11.3-14.1,1.9-34.9C1843,442.5,1851.5,454.7,1843,491.5z M2548.9,512.2
		c16,9.4,37.7,35.8,50.9,61.3c20.7,42.4,21.7,50,11.3,95.2C2582.9,795,2433.9,876,2335,818.6c-35.8-19.8-73.5-86.7-73.5-130.1
		c0-41.5,43.4-123.5,81.1-151.8C2407.6,486.8,2486.7,477.4,2548.9,512.2L2548.9,512.2z M1356.6,547.1c0,25.5-6.6,28.3-28.3,14.1
		c-12.3-8.5-11.3-11.3,3.8-23.6C1356.6,519.8,1356.6,519.8,1356.6,547.1L1356.6,547.1z M960.8,552.8c95.2,53.7,99.9,190.4,9.4,279.9
		c-114,115-285.6,72.6-299.7-73.5c-3.8-37.7,0.9-56.6,20.7-97.1c13.2-27.3,33.9-59.4,46.2-70.7C799.6,533,895.7,517,960.8,552.8
		L960.8,552.8z"/>
	<path class="st3" d="M440.5,454.7c-9.4,1.9-17,7.5-17,10.4c0,11.3,56.5,193.2,61.3,197.9c7.5,8.5,70.7-46.2,84.8-73.5
		c22.6-43.4,17.9-82-13.2-114C529.1,448.1,490.5,441.5,440.5,454.7z M525.3,506.6c15.1,15.1,14.1,47.1-1.9,68.8
		c-11.3,16-13.2,13.2-28.3-28.3c-8.5-25.5-15.1-47.1-15.1-49C480.1,490.6,515,496.2,525.3,506.6z"/>
	<path class="st3" d="M1544.2,428.4c-19.8,19.8-27.3,36.8-27.3,61.3c0,37.7,16,78.2,33.9,84.8c11.3,4.7,135.7-128.2,135.7-145.1
		c0-15.1-34.9-28.3-75.4-28.3C1580,401,1565.9,406.7,1544.2,428.4z M1601.7,476.4c-38.6,49-47.1,53.7-47.1,24.5s30.2-62.2,57.5-62.2
		C1630,438.7,1629,441.5,1601.7,476.4z"/>
	<path class="st3" d="M2401,538.6c-50.9,27.3-59.4,80.1-20.7,125.4c20.7,25.5,30.2,29.2,69.8,29.2s49-3.8,69.7-29.2
		c24.5-29.2,33-77.3,15.1-88.6c-4.7-2.8-9.4,2.8-9.4,13.2c0,36.8-61.3,51.8-87.7,21.7c-21.7-24.5-19.8-54.7,4.7-71.6
		c19.8-14.1,19.8-15.1,2.8-15.1C2434.9,524.5,2415.1,530.1,2401,538.6z"/>
	<path class="st3" d="M810.9,595.2c-23.6,19.8-29.2,31.1-29.2,61.3c0,53.7,32,83.9,89.5,83.9c59.4,0,89.5-30.2,89.5-86.7l-0.9-40.5
		l-13.2,25.5c-16,28.3-42.4,39.6-70.7,31.1c-42.4-13.2-46.2-73.5-6.6-89.5c19.8-7.5,18.9-8.5-4.7-8.5
		C850.5,570.7,826.9,581,810.9,595.2z"/>
	<path class="st3" d="M1758.2,984.4c-10.4,11.3-18.8,40.5-21.7,75.4c-4.7,45.2-8.5,57.5-20.7,57.5c-8.5,0-24.5,6.6-35.8,14.1
		c-19.8,14.1-21.7,13.2-26.4-9.4c-2.8-13.2-7.5-34.9-10.4-49c-7.5-35.8-20.7-50-47.1-50c-30.2,0-48.1,21.7-55.6,66
		c-5.7,33.9-8.5,36.8-25.4,27.3c-22.6-12.3-58.4-4.7-93.3,20.7c-21.7,15.1-26.4,16-36.8,3.8c-41.5-50-140.4,44.3-157.4,150.8
		c-3.8,25.4,0,36.8,20.7,56.6c21.7,22.6,30.2,24.5,59.4,18.8c18.8-3.8,87.7-5.7,152.7-5.7c144.2,1,126.3,1.9,188.5-2.8
		c28.3-1,60.3-5.7,71.6-9.4c11.3-2.8,31.1,0,46.2,7.5c16,8.5,33.9,11.3,46.2,6.6c10.4-4.7,34.9-5.7,52.8-3.8
		c46.2,4.7,54.7-4.7,66.9-67.9c18.8-103.7-7.5-174.4-65-174.4h-26.4l3.8-61.3c2.8-40.5,0-66-7.5-75.4
		C1821.3,960.9,1777,962.8,1758.2,984.4z M1813.8,1091l-6.6,97.1l22.6-21.7c55.6-50.9,93.3,4.7,75.4,115.9
		c-5.7,39.6-10.4,48.1-29.2,50c-22.6,3.8-22.6,2.8-17-53.7c9.4-84.8-7.5-112.2-35.8-57.5c-7.5,15.1-14.1,46.2-14.1,70.7
		c0,34.9-2.8,42.4-17.9,42.4c-14.1,0-17.9-10.4-23.6-57.5c-8.5-86.7-6.6-230,3.8-257.3c5.7-16,16-24.5,29.2-24.5
		C1820.4,994.8,1820.4,996.7,1813.8,1091z M1611.1,1097.6c0,32,3.8,48.1,14.1,51.8c7.5,2.8,14.1,11.3,14.1,19.8s-6.6,17-14.1,19.8
		c-10.4,4.7-14.1,22.6-14.1,75.4c0,68.8,0,69.8-24.5,69.8s-24.5,0-20.7-66c2.8-49,0-66-8.5-66c-17,0-15.1-34.9,1.9-41.5
		c9.4-3.8,14.1-18.8,14.1-50.9c0-48.1,4.7-58.4,25.4-58.4C1607.3,1051.4,1611.1,1065.5,1611.1,1097.6L1611.1,1097.6z M1513.1,1159.8
		c18.8,28.3,28.3,127.2,15.1,151.8c-7.5,15.1-20.7,18.8-71.6,20.7c-56.6,1-62.2,0-62.2-17.9c0-10.4,21.7-39.6,48.1-66
		c35.8-34.9,46.2-49.9,38.7-57.5c-8.5-8.5-16-6.6-29.2,5.7c-19.8,17.9-38.7,13.2-38.7-8.5c0-13.2,53.7-51.8,72.6-51.8
		C1492.4,1136.2,1504.6,1146.6,1513.1,1159.8L1513.1,1159.8z M1733.7,1166.4c0,11.3-10.4,29.2-23.6,40.5
		c-30.2,23.6-48.1,79.2-27.3,86.7c7.5,2.8,24.5-1.9,37.7-11.3c18.8-12.2,27.3-13.2,35.8-4.7c7.6,8.5,4.7,15.1-12.2,29.2
		c-31.1,25.4-107.4,21.7-112.2-3.8c-6.6-35.8,8.5-80.1,41.5-117.8C1710.1,1141.8,1733.6,1134.3,1733.7,1166.4L1733.7,1166.4z
		 M1366.1,1176.8c0,11.3-8.5,26.4-19.8,33c-17.9,11.3-46.2,64.1-46.2,86.7c0,14.1,33.9,11.3,47.1-4.7c13.2-15.1,47.1-19.8,47.1-5.7
		s-46.2,46.2-75.4,52.8s-66-7.5-66-26.4c0-33,22.6-82.9,52.8-117.8C1343.4,1150.3,1366.1,1143.7,1366.1,1176.8L1366.1,1176.8z
		 M1401.9,1238c1.9,7.5-7.5,11.3-28.3,11.3c-29.2-0.9-30.2-0.9-12.2-14.1C1381.1,1219.1,1396.2,1221,1401.9,1238L1401.9,1238z
		 M1726.1,1241.8c-6.6,6.6-11.3,7.5-11.3,1.9s2.8-13.2,6.6-16c2.8-3.8,8.5-4.7,11.3-1.9C1734.6,1228.6,1731.8,1236.1,1726.1,1241.8
		L1726.1,1241.8z"/>
	<path class="st3" d="M1460.3,1272.8c-12.2,13.2-19.8,26.4-17,29.2c11.3,10.4,45.2-16,45.2-33.9
		C1488.6,1244.6,1486.7,1244.6,1460.3,1272.8z"/>
	<path class="st3" d="M2027.7,1025c-4.7,6.6-18.8,33-30.2,58.4c-20.7,46.2-20.7,46.2-1.9,70.7c17.9,24.5,17.9,24.5,0,76.3
		c-18.8,51.8-18.8,51.8,0.9,96.1c22.6,52.8,51.8,65,99.9,42.4c30.2-14.1,32-14.1,45.2,5.7c10.4,15.1,24.5,21.7,54.7,22.6
		c22.6,1.9,65,4.7,93.3,7.5c111.2,10.4,115.9,6.6,111.2-110.3c-3.8-108.4-8.5-113.1-130.1-125.3c-51.8-5.7-101.8-7.5-111.2-3.8
		c-10.4,3.8-25.4-1-41.5-15.1c-23.6-19.8-24.5-24.5-15.1-54.7c8.5-28.3,7.5-37.7-5.7-57.5C2080.5,1011.8,2044.7,1005.2,2027.7,1025z
		 M2077.7,1060.8c6.6,20.7-17.9,73.5-38.7,82c-29.2,11.3-33.9-12.3-12.2-57.5C2049.4,1039.1,2068.2,1029.7,2077.7,1060.8
		L2077.7,1060.8z M2105,1174.8c37.7,29.2,33.9,70.7-8.5,90.5c-19.8,9.4-33,22.6-33,33c0,21.7,5.6,21.7,34.9-1.9
		c28.3-22.6,50-24.5,50-4.7c0,17.9-81.1,65-99,57.5c-8.5-2.8-17-13.2-19.8-21.7c-2.8-9.4-9.4-24.5-15.1-34.9
		c-5.7-11.3-5.7-20.7,0.9-27.3c5.7-5.7,10.4-17.9,10.4-27.3c0-29.2,26.4-82.9,40.5-82.9C2073.9,1155,2090.9,1163.5,2105,1174.8
		L2105,1174.8z M2201.2,1203.1c3.8,7.5,8.5,7.5,16,0c12.2-12.3,50.9-14.1,57.5-1.9c2.8,4.7,22.6,6.6,43.4,3.8
		c33.9-4.7,37.7-2.8,47.1,20.7c5.6,15.1,9.4,54.7,7.5,88.6c-2.8,59.4-3.8,62.2-26.4,62.2c-23.6,0-23.6-0.9-19.8-68.8
		c2.8-64.1,1.9-69.8-14.1-66c-15.1,2.8-17.9,13.2-20.7,66.9c-2.8,61.3-3.8,63.2-27.3,63.2c-24.5,0-24.5,0-19.8-60.3
		c5.6-69.8-3.8-96.1-25.4-67.9c-8.5,11.3-14.1,39.6-14.1,73.5c0,38.7-3.8,54.7-12.2,54.7c-26.4,0-34.9-23.6-34.9-100.8
		c0-70.7,1.9-78.2,17.9-78.2C2186.1,1192.7,2197.4,1197.4,2201.2,1203.1L2201.2,1203.1z"/>
	<path class="st3" d="M2069.2,1226.7c-3.8,9.4-0.9,13.2,5.7,11.3c14.1-4.7,21.7-26.4,9.4-26.4
		C2079.6,1211.6,2072,1218.2,2069.2,1226.7z"/>
	<path class="st3" d="M2911.8,1067.4c0,14.1,1.9,15.1,9.4,2.8c5.7-9.4,9.4-10.4,9.4-2.8c0,6.6,8.5,12.3,18.9,12.3
		c11.3,0,18.9-6.6,18.9-17c0-12.2-1.9-13.2-8.5-2.8c-5.6,8.5-10.4,9.4-14.1,1.9C2935.4,1045.7,2911.8,1049.5,2911.8,1067.4z"/>
	<path class="st3" d="M949.5,1099.4c-9.4,4.7-17,16-17,22.6c0,17.9-4.7,17.9-33-0.9c-38.7-25.4-80.1,11.3-80.1,69.7
		c0,27.3,0,27.3-48.1,22.6c-44.3-3.8-50-1.9-68.8,21.7c-11.3,14.1-34.9,31.1-52.8,37.7s-49,18.9-67.9,27.3
		c-53.7,22.6-46.2,1.9,15.1-49c33-26.4,11.3-96.1-29.2-96.1c-32,0-75.4,46.2-117.8,128.2c-46.2,87.7-60.3,146.1-45.2,182.8
		c19.8,48.1,68.8,51.8,142.3,12.3c36.8-19.8,47.1-21.7,64.1-12.3c16,8.5,26.4,7.5,50-3.8c16-8.5,45.2-15.1,64.1-15.1
		c21.7,0,45.2-7.5,61.3-20.7c20.7-16,29.2-17.9,43.4-9.4c26.4,17,63.2,13.2,76.3-6.6c8.5-14.1,14.1-16,26.4-8.5
		c11.3,7.5,36.8,6.6,85.8-0.9c38.7-6.6,81.1-11.3,95.2-11.3c35.8,1.9,61.3-27.3,68.8-78.2c7.5-49-7.5-124.4-30.2-149.9
		c-17.9-19.8-55.6-20.7-87.7-1.9c-33,18.8-37.7,17.9-37.7-13.2C1026.8,1099.4,988.1,1075.9,949.5,1099.4z M996.6,1162.6
		c1.9,27.3,7.5,39.6,17,39.6c17,0,17,25.4,0,34.9c-9.4,5.7-15.1,28.3-17,73.5c-2.8,60.3-4.7,66-23.6,68.8
		c-20.7,2.8-21.7,0-21.7-55.6c0-44.3-3.8-61.3-16-70.7c-27.3-18.8-40.5,1.9-40.5,62.2c0,66.9-6.6,84.8-29.2,84.8
		c-16,0-17.9-7.5-17.9-57.5c0-44.3-3.8-61.3-16-70.7c-16-12.2-16-14.1-0.9-25.4c9.4-7.5,17-29.2,18.8-54.7
		c1.9-34.9,6.6-42.4,24.5-44.3c17.9-2.8,20.7,0.9,20.7,27.3c0,31.1,22.6,57.5,44.3,49c7.5-2.8,12.2-20.7,12.2-44.3
		C951.3,1109.8,991.9,1094.7,996.6,1162.6L996.6,1162.6z M1140.8,1194.6c13.2,23.6,17.9,143.3,6.6,154.6c-3.8,3.8-22.6,7.5-42.4,9.4
		s-46.2,4.7-59.4,5.7c-17.9,1.9-24.5-1.9-26.4-17.9s10.4-34.9,46.2-68.8c39.6-37.7,46.2-48.1,33-52.8c-8.5-3.8-23.6,0.9-33,9.4
		c-17,16-29.2,11.3-29.2-10.4c0-15.1,53.7-49.9,77.3-49.9C1122.9,1173.9,1135.1,1183.3,1140.8,1194.6L1140.8,1194.6z M583.8,1207.8
		c0,15.1-6.6,26.4-17,29.2c-32,8.5-105.6,162.1-93.3,196c7.5,18.9,37.7,7.6,79.2-28.3c28.3-24.5,32-31.1,17-30.2
		c-37.7,3.8-17.9-26.4,33-50.9c57.5-28.3,68.8-27.3,60.3,5.7c-2.8,12.2-6.6,40.5-7.5,63.2c-1.9,29.2-6.6,41.5-17.9,43.3
		c-12.2,2.8-16-3.8-16-21.7v-25.4l-34.9,28.3c-108.4,84.8-179.1,76.3-152.7-18.8c23.6-87.7,104.6-214.9,136.7-214.9
		C578.1,1183.3,583.8,1192.7,583.8,1207.8L583.8,1207.8z M802.5,1255.8c34.9,31.1,10.4,127.2-39.6,153.6c-10.4,5.7-33,9.4-50,7.5
		c-28.3-2.8-30.2-5.7-33-42.4c-2.8-39.6,14.1-84.8,43.3-118.8C741.2,1235.2,779.8,1235.2,802.5,1255.8L802.5,1255.8z M522.5,1380.3
		c2.8,4.7,1,11.3-4.7,15.1c-4.7,2.8-9.4-0.9-9.4-8.5C508.4,1369.9,514,1367.1,522.5,1380.3z"/>
	<path class="st3" d="M1084.2,1300.2c-13.2,13.2-19.8,27.3-16,31.1c8.5,8.5,46.2-30.2,41.5-44.3
		C1107.8,1281.3,1097.4,1286.1,1084.2,1300.2z"/>
	<path class="st3" d="M745.9,1289.8c-15.1,17.9-24.5,68.8-16,88.6c5.7,15.1,7.5,15.1,24.5-5.7c18.8-22.6,23.6-62.2,9.4-83.9
		C758.1,1279.4,754.4,1279.4,745.9,1289.8z"/>
	<path class="st3" d="M2589.5,1137.1c-9.4,4.7-19.8,25.4-22.6,44.3c-5.7,33.9-6.6,34.9-39.6,32c-42.4-3.8-84.8,11.3-93.3,32
		c-2.8,8.5-1.9,27.3,3.8,40.5c6.6,18.8,4.7,31.1-8.5,52.8c-9.4,16-17,36.8-17,48.1c0,37.7,26.4,49.9,141.4,64.1
		c13.2,1,33,7.5,44.3,13.2c11.3,6.6,29.2,11.3,39.6,11.3s30.2,4.7,43.4,11.3c17,7.5,29.2,7.5,46.2,0l23.6-10.4l-4.7-134.8
		c-1.9-74.5-3.8-139.5-3.8-146.1c0-18.8-28.3-40.5-54.7-40.5c-14.1,0-33.9-6.6-43.4-14.1C2622.4,1124.9,2612.1,1123.9,2589.5,1137.1
		z M2644.1,1309.6c3.8,138.6,0.9,150.8-30.2,130.1c-16-10.4-27.3-253.5-13.2-270.5c7.5-9.4,17-11.3,25.4-5.7
		C2637.5,1169.2,2641.3,1198.4,2644.1,1309.6z M2715.8,1324.7c2.8,75.4,4.7,138.6,2.8,139.5c-1.9,1.9-11.3,0.9-21.7-1.9
		c-20.7-6.6-30.2-67.9-30.2-194.2c0-75.4,3.8-87.7,28.3-82.9C2706.3,1188,2710.1,1212.5,2715.8,1324.7L2715.8,1324.7z
		 M2559.3,1264.4c10.4,15.1,16,45.2,17,83.9c0.9,69.7-10.4,89.5-43.4,72.6c-12.2-5.7-36.8-12.2-54.7-13.2
		c-49-3.8-46.2-38.7,7.5-80.1c45.2-34.9,47.1-45.2,6.6-45.2c-32.1,0-45.2-28.3-17-35.8C2519.7,1235.2,2544.2,1239.9,2559.3,1264.4
		L2559.3,1264.4z"/>
	<path class="st3" d="M2505.6,1352c-25.4,20.7-19.8,33.9,9.4,24.5c11.3-2.8,19.8-14.1,19.8-24.5
		C2534.8,1329.4,2532.9,1329.4,2505.6,1352z"/>
	<path class="st3" d="M2799.6,1196.5c-5.6,6.6-13.2,59.4-16,115c-2.8,56.6-9.4,116.9-16,133.8c-10.4,29.2-9.4,33.9,11.3,50
		c28.3,23.6,71.6,22.6,95.2-0.9c22.6-22.6,22.6-28.3,5.7-51.8c-7.5-10.4-11.3-22.6-9.4-28.3c1.9-4.7,7.5-50,12.3-99
		c7.5-72.6,6.6-93.3-4.7-111.2C2861.9,1180.5,2816.6,1175.8,2799.6,1196.5z M2857.1,1291.7c-2.8,109.3-7.5,129.1-28.3,125.3
		c-13.2-2.8-16-17-18.9-96.1c-2.8-96.1,5.7-122.5,34.9-116.9C2857.1,1206.9,2860,1221,2857.1,1291.7z M2849.6,1446.3
		c21.7,23.6,12.2,38.6-23.6,38.6c-34.9,0-47.1-25.4-22.6-43.3C2826,1424.6,2830.8,1424.6,2849.6,1446.3L2849.6,1446.3z"/>
	<path class="st3" d="M2911.8,1246.5c0,14.1,1.9,15.1,9.4,2.8c5.7-9.4,9.4-10.4,9.4-2.8c0,6.6,8.5,12.3,18.9,12.3
		c30.2,0,21.7-24.5-9.4-26.4C2918.4,1230.4,2911.8,1234.2,2911.8,1246.5z"/>
</g>
</svg>
